<svg width="36" height="36" viewBox="0 0 36 36" fill="none" xmlns="http://www.w3.org/2000/svg">
<ellipse cx="17.7629" cy="17.7421" rx="12.6892" ry="12.4778" transform="rotate(41.0053 17.7629 17.7421)" fill="url(#paint0_radial_1_18)"/>
<ellipse cx="17.7629" cy="17.7421" rx="12.6892" ry="12.4778" transform="rotate(41.0053 17.7629 17.7421)" fill="url(#paint1_linear_1_18)"/>
<mask id="mask0_1_18" style="mask-type:alpha" maskUnits="userSpaceOnUse" x="5" y="5" width="26" height="26">
<ellipse cx="17.7629" cy="17.7421" rx="12.6892" ry="12.4778" transform="rotate(41.0053 17.7629 17.7421)" fill="white"/>
</mask>
<g mask="url(#mask0_1_18)">
<path d="M18.1899 13.4801C19.034 13.0354 22.4178 13.4646 23.4752 14.1689C24.5327 14.8732 25.5881 20.0459 25.1651 20.6537C24.7987 21.1802 21.7611 22.9897 20.8023 23.0711C19.8436 23.1524 16.0732 20.302 15.8617 19.6676C15.6502 19.0331 17.3457 13.9248 18.1899 13.4801Z" fill="#333333"/>
<path d="M27.8329 22.4741C28.4767 21.4284 29.5421 19.4871 30.1965 18.7344C35.3867 22.6371 27.1311 28.7237 27.282 28.55C27.433 28.3764 26.4361 24.7433 27.8329 22.4741Z" fill="#333333"/>
<path d="M22.2536 30.3046C22.3813 30.4156 21.1967 31.6276 20.5885 32.2198C19.3396 33.6562 13.3028 30.9297 13.8578 30.2913C14.4129 29.6529 19.5821 28.5423 19.7417 28.6811C19.9013 28.8199 22.094 30.1658 22.2536 30.3046Z" fill="#333333"/>
<path d="M10.1866 20.6537C10.492 21.5918 9.3196 25.4114 8.69524 27.2039C8.62087 27.4195 1.28245 19.1448 2.11503 18.1872C2.94761 17.2296 6.43251 16.2687 6.59211 16.4075C6.75171 16.5462 9.80492 19.4811 10.1866 20.6537Z" fill="#333333"/>
<path d="M9.159 10.2319C8.66496 10.0265 7.25454 7.84723 6.97923 6.76713L9.65821 4.5005C12.0312 4.13491 16.7342 3.64657 16.5622 4.618C16.3472 5.83228 14.5641 8.20543 14.1478 8.68422C13.7315 9.16302 9.77656 10.4886 9.159 10.2319Z" fill="#333333"/>
<path d="M24.2368 9.32872C23.7261 8.88467 22.2891 5.76699 21.6345 4.26366C22.9899 5.06845 26.9775 7.78815 32.0846 12.2286C38.4686 17.7791 28.6847 12.9157 27.7271 12.0831C26.7695 11.2506 24.8752 9.88377 24.2368 9.32872Z" fill="#333333"/>
</g>
<defs>
<radialGradient id="paint0_radial_1_18" cx="0" cy="0" r="1" gradientUnits="userSpaceOnUse" gradientTransform="translate(17.7629 17.7421) rotate(90.3477) scale(18.5657 18.8803)">
<stop offset="0.411368" stop-color="#FEFEFE"/>
<stop offset="1" stop-color="#B8B8B8"/>
</radialGradient>
<linearGradient id="paint1_linear_1_18" x1="2.5524" y1="17.9756" x2="32.5411" y2="22.1685" gradientUnits="userSpaceOnUse">
<stop stop-color="white"/>
<stop offset="0.402712" stop-color="white"/>
<stop offset="1" stop-color="#9A9A9A" stop-opacity="0"/>
</linearGradient>
</defs>
</svg>
